<svg width="240" height="145" viewBox="0 0 240 145" fill="none" xmlns="http://www.w3.org/2000/svg">
<path d="M10.2356 38.5912C10.326 38.9087 11.186 40.9955 12.0457 43.2638C14.173 48.5261 19.6015 63.7234 19.6006 64.2679C19.5999 64.7669 18.0543 65.2664 16.5095 65.2668L15.4645 65.2671L16.5981 66.7186C18.2303 68.9413 21.0849 73.9312 20.812 74.1581C20.6755 74.2943 18.7665 74.7031 16.5396 75.112C14.3581 75.4755 12.4492 75.8843 12.3127 76.0205C12.0396 76.2928 14.5352 78.4699 17.0315 80.1479C18.4839 81.1456 19.4831 81.3722 22.9358 81.5982C25.2528 81.779 31.1123 82.821 36.3809 83.9992C53.6856 87.9418 68.1312 89.7528 82.0345 89.7492C88.2591 89.7476 92.257 89.9734 94.7553 90.4264C96.7084 90.8342 100.524 91.2415 103.159 91.4223C109.383 91.7837 109.837 92.0104 107.063 93.6898C105.881 94.3706 102.925 96.2316 100.56 97.7747C98.149 99.3633 95.7389 100.634 95.1483 100.634C94.3759 100.635 94.1484 100.816 94.3294 101.315C94.8272 102.585 92.6899 103.766 89.8728 103.812C87.1921 103.812 86.6918 104.175 87.9624 105.219C88.4161 105.581 88.5515 106.171 88.3687 106.852C88.0029 108.349 89.0936 108.213 93.1404 106.261C97.6418 104.127 101.461 102.584 112.69 98.4975C122.282 95.0015 127.055 93.6392 127.463 94.2742C127.553 94.4557 126.143 95.681 124.278 97.0426C122.413 98.3588 121.048 99.5842 121.23 99.7656C121.411 99.947 123.681 101.081 126.314 102.26L131.082 104.436L139.26 104.434C147.802 104.386 153.892 103.523 155.439 102.161C156.303 101.344 157.172 97.4423 157.361 93.359L157.501 90.41L159.774 89.8649C161.001 89.547 162.32 89.1384 162.683 88.9114C163.093 88.6845 170.681 88.3195 179.496 88.1811C197.943 87.8133 205.713 87.3122 213.121 86.0399C221.756 84.5858 225.984 82.7699 225.26 80.91C225.125 80.5471 223.083 78.5967 220.769 76.6011C214.553 71.1583 206.88 67.5308 196.615 65.1289C191.21 63.86 179.807 63.5907 163.858 64.3208C157.36 64.5947 145.819 65.0968 138.185 65.4618L124.326 66.0552L120.014 63.6518C104.761 55.1263 84.7848 45.0595 82.559 44.7425C82.0593 44.6519 81.6501 44.8335 81.6951 45.151C81.74 45.4686 81.7844 46.1491 81.8291 46.6482C81.8283 47.1473 82.1457 47.5555 82.5092 47.5554C83.4179 47.5552 89.5887 52.9072 89.5875 53.6784C89.587 54.0414 89.9952 54.4496 90.4948 54.5856C91.7209 54.9936 96.8477 59.7561 96.8466 60.482C96.846 60.8449 97.2089 61.2078 97.663 61.3891C98.7982 61.7972 103.88 66.5143 103.516 66.8773C102.969 67.4673 82.8861 68.0623 72.3001 67.7929C57.7613 67.4791 56.4897 67.0711 47.6402 60.4495C39.4714 54.3267 32.0309 47.3418 25.6362 39.8575L24.2756 38.2699L17.097 38.1357C11.3269 38.0011 10.0092 38.0922 10.2356 38.5912Z" fill="#F89B24"/>
</svg>
