<svg width="16" height="16" viewBox="0 0 16 16" fill="none" xmlns="http://www.w3.org/2000/svg">
<path d="M8.00016 14.6666C7.08905 14.6666 6.22794 14.4916 5.41683 14.1416C4.60572 13.7916 3.89738 13.3139 3.29183 12.7083C2.68627 12.1028 2.2085 11.3944 1.8585 10.5833C1.5085 9.7722 1.3335 8.91109 1.3335 7.99998C1.3335 7.07776 1.5085 6.21387 1.8585 5.40831C2.2085 4.60276 2.68627 3.8972 3.29183 3.29165C3.89738 2.68609 4.60572 2.20831 5.41683 1.85831C6.22794 1.50831 7.08905 1.33331 8.00016 1.33331C8.92238 1.33331 9.78627 1.50831 10.5918 1.85831C11.3974 2.20831 12.1029 2.68609 12.7085 3.29165C13.3141 3.8972 13.7918 4.60276 14.1418 5.40831C14.4918 6.21387 14.6668 7.07776 14.6668 7.99998C14.6668 8.91109 14.4918 9.7722 14.1418 10.5833C13.7918 11.3944 13.3141 12.1028 12.7085 12.7083C12.1029 13.3139 11.3974 13.7916 10.5918 14.1416C9.78627 14.4916 8.92238 14.6666 8.00016 14.6666ZM8.00016 12C9.11127 12 10.0557 11.6111 10.8335 10.8333C11.6113 10.0555 12.0002 9.11109 12.0002 7.99998C12.0002 6.88887 11.6113 5.94442 10.8335 5.16665C10.0557 4.38887 9.11127 3.99998 8.00016 3.99998C6.88905 3.99998 5.94461 4.38887 5.16683 5.16665C4.38905 5.94442 4.00016 6.88887 4.00016 7.99998C4.00016 9.11109 4.38905 10.0555 5.16683 10.8333C5.94461 11.6111 6.88905 12 8.00016 12Z" fill="#00957B"/>
</svg>
