<svg width="16" height="16" viewBox="0 0 16 16" fill="none" xmlns="http://www.w3.org/2000/svg">
<path d="M4.66683 14C4.30016 14 3.98627 13.8694 3.72516 13.6083C3.46405 13.3472 3.3335 13.0333 3.3335 12.6666V5.33331C3.3335 4.96665 3.46405 4.65276 3.72516 4.39165C3.98627 4.13054 4.30016 3.99998 4.66683 3.99998H6.00016V2.66665C6.00016 2.29998 6.13072 1.98609 6.39183 1.72498C6.65294 1.46387 6.96683 1.33331 7.3335 1.33331H8.66683C9.0335 1.33331 9.34738 1.46387 9.6085 1.72498C9.86961 1.98609 10.0002 2.29998 10.0002 2.66665V3.99998H11.3335C11.7002 3.99998 12.0141 4.13054 12.2752 4.39165C12.5363 4.65276 12.6668 4.96665 12.6668 5.33331V12.6666C12.6668 13.0333 12.5363 13.3472 12.2752 13.6083C12.0141 13.8694 11.7002 14 11.3335 14C11.3335 14.1889 11.2696 14.3472 11.1418 14.475C11.0141 14.6028 10.8557 14.6666 10.6668 14.6666C10.4779 14.6666 10.3196 14.6028 10.1918 14.475C10.0641 14.3472 10.0002 14.1889 10.0002 14H6.00016C6.00016 14.1889 5.93627 14.3472 5.8085 14.475C5.68072 14.6028 5.52238 14.6666 5.3335 14.6666C5.14461 14.6666 4.98627 14.6028 4.8585 14.475C4.73072 14.3472 4.66683 14.1889 4.66683 14ZM6.00016 12H7.3335V5.99998H6.00016V12ZM8.66683 12H10.0002V5.99998H8.66683V12ZM7.3335 3.99998H8.66683V2.66665H7.3335V3.99998Z" fill="#020100"/>
</svg>
